<svg xmlns="http://www.w3.org/2000/svg" xmlns:xlink="http://www.w3.org/1999/xlink" width="40" zoomAndPan="magnify" viewBox="0 0 30 30.000001" height="40" preserveAspectRatio="xMidYMid meet" version="1.2"><defs><clipPath id="a48d74fa2a"><path d="M 0.484375 11 L 7 11 L 7 17 L 0.484375 17 Z M 0.484375 11 "/></clipPath></defs><g id="6fb88cda84"><g clip-rule="nonzero" clip-path="url(#a48d74fa2a)"><g style="fill:#ffffff;fill-opacity:1;"><g transform="translate(0.48387, 16.451616)"><path style="stroke:none" d="M 6.34375 -5.40625 L 5.265625 0 L 3.734375 0 L 4.15625 -2.109375 L 2.078125 -2.109375 L 1.65625 0 L 0.125 0 L 1.203125 -5.40625 L 2.734375 -5.40625 L 2.328125 -3.390625 L 4.421875 -3.390625 L 4.8125 -5.40625 Z M 6.34375 -5.40625 "/></g></g></g><g style="fill:#ffffff;fill-opacity:1;"><g transform="translate(7.397474, 16.451616)"><path style="stroke:none" d="M 1.203125 -5.40625 L 2.734375 -5.40625 L 1.65625 0 L 0.125 0 Z M 1.203125 -5.40625 "/></g></g><g style="fill:#ffffff;fill-opacity:1;"><g transform="translate(10.695554, 16.451616)"><path style="stroke:none" d="M 3.5 -5.40625 C 4.195312 -5.40625 4.734375 -5.253906 5.109375 -4.953125 C 5.492188 -4.648438 5.6875 -4.222656 5.6875 -3.671875 C 5.6875 -3.222656 5.578125 -2.828125 5.359375 -2.484375 C 5.140625 -2.140625 4.828125 -1.875 4.421875 -1.6875 C 4.023438 -1.507812 3.554688 -1.421875 3.015625 -1.421875 L 1.9375 -1.421875 L 1.65625 0 L 0.125 0 L 1.203125 -5.40625 Z M 3.09375 -2.625 C 3.425781 -2.625 3.679688 -2.703125 3.859375 -2.859375 C 4.046875 -3.015625 4.140625 -3.242188 4.140625 -3.546875 C 4.140625 -3.765625 4.066406 -3.925781 3.921875 -4.03125 C 3.773438 -4.144531 3.566406 -4.203125 3.296875 -4.203125 L 2.484375 -4.203125 L 2.171875 -2.625 Z M 3.09375 -2.625 "/></g></g><g style="fill:#ffffff;fill-opacity:1;"><g transform="translate(17.074952, 16.451616)"><path style="stroke:none" d="M 2.46875 -4.234375 L 2.296875 -3.3125 L 4.703125 -3.3125 L 4.484375 -2.171875 L 2.0625 -2.171875 L 1.875 -1.1875 L 4.703125 -1.1875 L 4.46875 0 L 0.125 0 L 1.203125 -5.40625 L 5.4375 -5.40625 L 5.203125 -4.234375 Z M 2.46875 -4.234375 "/></g></g><g style="fill:#ffffff;fill-opacity:1;"><g transform="translate(22.951123, 16.451616)"><path style="stroke:none" d="M 5.703125 -3.6875 C 5.703125 -3.195312 5.566406 -2.769531 5.296875 -2.40625 C 5.035156 -2.050781 4.671875 -1.789062 4.203125 -1.625 L 5.125 0 L 3.515625 0 L 2.71875 -1.4375 L 1.9375 -1.4375 L 1.65625 0 L 0.125 0 L 1.203125 -5.40625 L 3.515625 -5.40625 C 4.210938 -5.40625 4.75 -5.253906 5.125 -4.953125 C 5.507812 -4.648438 5.703125 -4.226562 5.703125 -3.6875 Z M 4.15625 -3.546875 C 4.15625 -3.765625 4.078125 -3.925781 3.921875 -4.03125 C 3.773438 -4.144531 3.566406 -4.203125 3.296875 -4.203125 L 2.5 -4.203125 L 2.171875 -2.625 L 3.09375 -2.625 C 3.425781 -2.625 3.6875 -2.703125 3.875 -2.859375 C 4.0625 -3.015625 4.15625 -3.242188 4.15625 -3.546875 Z M 4.15625 -3.546875 "/></g></g></g></svg>