<svg xmlns="http://www.w3.org/2000/svg" xmlns:xlink="http://www.w3.org/1999/xlink" width="40" zoomAndPan="magnify" viewBox="0 0 30 30.000001" height="40" preserveAspectRatio="xMidYMid meet" version="1.2"><defs><clipPath id="9feaf7ab0f"><path d="M 0.484375 11 L 7 11 L 7 17 L 0.484375 17 Z M 0.484375 11 "/></clipPath></defs><g id="55c462c616"><g clip-rule="nonzero" clip-path="url(#9feaf7ab0f)"><g style="fill:#000000;fill-opacity:1;"><g transform="translate(0.48387, 16.45622)"><path style="stroke:none" d="M 6.375 -5.4375 L 5.28125 0 L 3.75 0 L 4.171875 -2.109375 L 2.078125 -2.109375 L 1.65625 0 L 0.125 0 L 1.21875 -5.4375 L 2.75 -5.4375 L 2.34375 -3.40625 L 4.4375 -3.40625 L 4.84375 -5.4375 Z M 6.375 -5.4375 "/></g></g></g><g style="fill:#000000;fill-opacity:1;"><g transform="translate(7.413912, 16.45622)"><path style="stroke:none" d="M 1.21875 -5.4375 L 2.75 -5.4375 L 1.65625 0 L 0.125 0 Z M 1.21875 -5.4375 "/></g></g><g style="fill:#000000;fill-opacity:1;"><g transform="translate(10.719833, 16.45622)"><path style="stroke:none" d="M 3.515625 -5.4375 C 4.210938 -5.4375 4.753906 -5.28125 5.140625 -4.96875 C 5.523438 -4.664062 5.71875 -4.238281 5.71875 -3.6875 C 5.71875 -3.226562 5.609375 -2.828125 5.390625 -2.484375 C 5.171875 -2.148438 4.859375 -1.890625 4.453125 -1.703125 C 4.046875 -1.515625 3.570312 -1.421875 3.03125 -1.421875 L 1.9375 -1.421875 L 1.65625 0 L 0.125 0 L 1.21875 -5.4375 Z M 3.09375 -2.625 C 3.4375 -2.625 3.695312 -2.703125 3.875 -2.859375 C 4.0625 -3.023438 4.15625 -3.257812 4.15625 -3.5625 C 4.15625 -3.78125 4.082031 -3.941406 3.9375 -4.046875 C 3.789062 -4.160156 3.582031 -4.21875 3.3125 -4.21875 L 2.5 -4.21875 L 2.1875 -2.625 Z M 3.09375 -2.625 "/></g></g><g style="fill:#000000;fill-opacity:1;"><g transform="translate(17.114398, 16.45622)"><path style="stroke:none" d="M 2.484375 -4.25 L 2.3125 -3.328125 L 4.71875 -3.328125 L 4.5 -2.1875 L 2.078125 -2.1875 L 1.875 -1.1875 L 4.734375 -1.1875 L 4.484375 0 L 0.125 0 L 1.21875 -5.4375 L 5.46875 -5.4375 L 5.21875 -4.25 Z M 2.484375 -4.25 "/></g></g><g style="fill:#000000;fill-opacity:1;"><g transform="translate(23.00454, 16.45622)"><path style="stroke:none" d="M 5.71875 -3.703125 C 5.71875 -3.203125 5.585938 -2.769531 5.328125 -2.40625 C 5.066406 -2.050781 4.695312 -1.789062 4.21875 -1.625 L 5.140625 0 L 3.53125 0 L 2.71875 -1.4375 L 1.953125 -1.4375 L 1.65625 0 L 0.125 0 L 1.21875 -5.4375 L 3.53125 -5.4375 C 4.226562 -5.4375 4.765625 -5.28125 5.140625 -4.96875 C 5.523438 -4.664062 5.71875 -4.242188 5.71875 -3.703125 Z M 4.171875 -3.5625 C 4.171875 -3.78125 4.09375 -3.941406 3.9375 -4.046875 C 3.789062 -4.160156 3.582031 -4.21875 3.3125 -4.21875 L 2.515625 -4.21875 L 2.1875 -2.625 L 3.09375 -2.625 C 3.4375 -2.625 3.703125 -2.703125 3.890625 -2.859375 C 4.078125 -3.023438 4.171875 -3.257812 4.171875 -3.5625 Z M 4.171875 -3.5625 "/></g></g></g></svg>